<svg width="176" height="84" viewBox="0 0 176 84" fill="none" xmlns="http://www.w3.org/2000/svg">
<g clip-path="url(#clip0_2194_346)">
<path d="M32.3277 23.4572H1.31104V27.8413H32.3277V23.4572Z" fill="white"/>
<path d="M36.5684 0H1.31104V4.38412H36.5684V0Z" fill="white"/>
<path d="M37.2649 46.9349H1.31104V51.3191H37.2649V46.9349Z" fill="white"/>
<path d="M75.3487 23.4572H44.332V27.8413H75.3487V23.4572Z" fill="white"/>
<path d="M79.5894 0H44.332V4.38412H79.5894V0Z" fill="white"/>
<path d="M80.2859 46.9349H44.332V51.3191H80.2859V46.9349Z" fill="white"/>
<path d="M85.8184 51.3189H90.182V27.8413H119.519V23.4572H85.8184V51.3189Z" fill="white"/>
<path d="M123.042 0H85.8184V4.38412H123.042V0Z" fill="white"/>
<path d="M152.133 6.35083L171.309 51.3188H176L154.121 0H150.064L128.185 51.3188H132.958L152.133 6.35083Z" fill="white"/>
<path d="M9.40333 61.2139L0 83.2369H2.95006L10.5301 65.4341L18.1306 83.2369H21.0602L11.6568 61.2139H9.40333Z" fill="white"/>
<path d="M33.7002 78.1357C32.8193 76.1485 32.1637 74.7964 31.6311 73.936C31.4262 73.6287 31.2418 73.3624 31.0369 73.1165C31.8359 72.8092 32.5325 72.338 33.1471 71.703C34.069 70.6991 34.5401 69.2651 34.5401 67.4008C34.5401 65.1882 33.8641 63.5698 32.5325 62.566C31.2828 61.6441 29.5619 61.1934 27.4313 61.1934H20.5478V63.8976H27.4313C28.9268 63.8976 30.0741 64.1639 30.8321 64.6761C31.4876 65.1677 31.8359 66.0896 31.8359 67.4008C31.8359 68.7119 31.5081 69.5928 30.8731 70.0435C30.1151 70.5762 29.0088 70.8425 27.5747 70.8425H20.5273V73.5468H26.1816C27.1035 73.5468 27.841 73.7721 28.4147 74.2023C29.0088 74.653 29.8282 76.0461 30.8526 78.3611C31.6925 80.2254 32.2661 81.516 32.5734 82.2535L32.9832 83.1959H35.9742L35.3186 81.8848C35.0523 81.2702 34.4992 80 33.6592 78.0948L33.7002 78.1357Z" fill="white"/>
<path d="M46.2589 63.9181C48.451 63.9181 50.1923 64.6966 51.442 66.2331L51.9337 66.8272L54.0233 65.1268L53.5316 64.5327C51.7698 62.4021 49.1885 61.2139 46.2589 61.2139C39.5393 61.2139 36.4868 66.9296 36.4868 72.2151C36.4868 77.5007 39.5393 83.2164 46.2589 83.2164C49.1885 83.2164 51.7698 82.0282 53.5316 79.8976L54.0233 79.3035L51.9337 77.6031L51.442 78.1972C50.1923 79.7337 48.451 80.5122 46.2589 80.5122C41.9567 80.5122 39.191 77.2548 39.191 72.2151C39.191 67.1755 41.9567 63.9181 46.2589 63.9181Z" fill="white"/>
<path d="M71.56 70.863H59.1452V61.2139H56.4614V83.2164H59.1452V73.5673H71.56V83.2164H74.2438V61.2139H71.56V70.863Z" fill="white"/>
<path d="M79.6515 61.2139H76.9473V83.2369H79.6515V61.2139Z" fill="white"/>
<path d="M82.0073 63.9181H90.12V83.2164H92.8242V63.9181H100.957V61.2139H82.0073V63.9181Z" fill="white"/>
<path d="M116.978 70.8629H103.314V73.5671H116.978V70.8629Z" fill="white"/>
<path d="M119.007 80.5123H103.314V83.2166H119.007V80.5123Z" fill="white"/>
<path d="M118.72 61.2139H103.314V63.9181H118.72V61.2139Z" fill="white"/>
<path d="M130.13 63.9181C132.322 63.9181 134.063 64.6966 135.313 66.2331L135.805 66.8272L137.894 65.1268L137.403 64.5327C135.641 62.4021 133.06 61.2139 130.13 61.2139C123.431 61.2139 120.358 66.9296 120.358 72.2151C120.358 77.5007 123.41 83.2164 130.13 83.2164C133.06 83.2164 135.641 82.0282 137.403 79.8976L137.894 79.3035L135.805 77.6031L135.313 78.1972C134.063 79.7337 132.322 80.5122 130.13 80.5122C125.828 80.5122 123.062 77.2548 123.062 72.2151C123.062 67.1755 125.828 63.9181 130.13 63.9181Z" fill="white"/>
<path d="M139.554 63.9181H147.687V83.2164H150.371V63.9181H158.504V61.2139H139.554V63.9181Z" fill="white"/>
<path d="M169.936 71.4162L167.088 70.2689C163.483 68.8144 162.745 67.8105 162.745 66.6428C162.745 65.0243 164.753 63.8976 167.6 63.8976C169.711 63.8976 171.964 64.7785 172.947 65.9872L173.439 66.5813L175.529 64.8809L175.058 64.2868C173.542 62.3816 170.673 61.1934 167.6 61.1934C163.155 61.1934 160.041 63.4264 160.041 66.6428C160.041 69.8592 162.929 71.5186 166.064 72.7683L168.912 73.9155C171.882 75.0832 172.886 76.0051 172.886 77.5621C172.886 79.3444 170.858 80.5122 167.703 80.5122C163.687 80.5122 161.639 78.4635 161.413 78.2382L160.84 77.6441L158.955 79.6927L159.385 80.2049C160.246 81.2497 163.093 83.2164 167.703 83.2164C172.312 83.2164 175.59 80.9424 175.59 77.5621C175.59 74.1818 172.865 72.5839 169.915 71.4162H169.936Z" fill="white"/>
</g>
<defs>
<clipPath id="clip0_2194_346">
<rect width="176" height="83.2369" fill="white"/>
</clipPath>
</defs>
</svg>
